# xmcd CD database file
#
# Track frame offsets:
#	150
#	26633
#	49381
#	73797
#	94103
#	112589
#	132739
#	153341
#	179347
#	201806
#	227063
#	248325
#	271501
#	292380
#	318731
#
# Disc length: 4520 seconds
#
# Revision: 10
# Processed by: cddbd v1.5.1PL0 Copyright (c) Steve Scherf et al.
# Submitted via: CDex 1.51
#
DISCID=d811a60f
DTITLE=Mr.Children - MR.CHILDREN 1992-1995
DYEAR=2001
DGENRE=Pop
TTITLE0=Kimi ga ita Natsu
TTITLE1=Hoshi ni naretara
TTITLE2=Dakishimetai
TTITLE3=Replay
TTITLE4=LOVE
TTITLE5=my life
TTITLE6=CROSS ROAD
TTITLE7=Innocent World
TTITLE8=Dance Dance Dance
TTITLE9=Ame nochi Hare
TTITLE10=Over
TTITLE11=Tommorow never knows
TTITLE12=every body goes
TTITLE13=es -Theme of es-
TTITLE14=Seasow game
EXTD=YEAR: 2001
EXTT0=
EXTT1=
EXTT2=
EXTT3=
EXTT4=
EXTT5=
EXTT6=
EXTT7=
EXTT8=
EXTT9=
EXTT10=
EXTT11=
EXTT12=
EXTT13=
EXTT14=
PLAYORDER=
